<svg width="189" height="126" viewBox="0 0 189 126" fill="none" xmlns="http://www.w3.org/2000/svg">
<g clip-path="url(#clip0_1_14)">
<path d="M59.4735 112.896C59.1477 113.058 59.0156 113.452 59.1785 113.777L60.9483 117.298C61.1112 117.623 61.5074 117.754 61.8332 117.592L66.772 115.135V123.704C66.772 124.066 67.0673 124.36 67.4316 124.36H72.7082C73.0725 124.36 73.3678 124.066 73.3678 123.704V111.854L77.1717 109.961C77.4975 109.799 77.6296 109.405 77.4667 109.081L75.6969 105.559C75.534 105.235 75.1378 105.104 74.8119 105.266L59.4735 112.896Z" fill="#F59A00"/>
<path d="M3.29788 105.328C2.93361 105.328 2.63831 105.622 2.63831 105.985V123.703C2.63831 124.066 2.93361 124.36 3.29788 124.36H8.57448C8.93875 124.36 9.23405 124.066 9.23405 123.703V118.453H17.1489C17.5132 118.453 17.8085 118.16 17.8085 117.797V113.86C17.8085 113.497 17.5132 113.203 17.1489 113.203H9.23405V105.985C9.23405 105.622 8.93875 105.328 8.57448 105.328H3.29788Z" fill="#F59A00"/>
<path d="M40.5638 105.985C40.5638 105.623 40.8591 105.329 41.2234 105.329H46.5C46.8643 105.329 47.1596 105.623 47.1596 105.985V113.204H55.0745C55.4387 113.204 55.734 113.498 55.734 113.86V117.798C55.734 118.16 55.4387 118.454 55.0745 118.454H47.1596V123.704C47.1596 124.066 46.8643 124.36 46.5 124.36H41.2234C40.8591 124.36 40.5638 124.066 40.5638 123.704V105.985Z" fill="#F59A00"/>
<path d="M81.3959 120.215C81.233 119.891 81.3651 119.497 81.6909 119.335L97.0294 111.704C97.3552 111.542 97.7514 111.674 97.9143 111.998L99.9791 116.107C100.142 116.431 100.01 116.825 99.6841 116.987L84.3456 124.618C84.0198 124.78 83.6236 124.648 83.4607 124.324L81.3959 120.215Z" fill="#F59A00"/>
<path d="M125.649 105.329C125.285 105.329 124.989 105.623 124.989 105.985V123.704C124.989 124.066 125.285 124.36 125.649 124.36H130.926C131.29 124.36 131.585 124.066 131.585 123.704V118.454H139.5C139.864 118.454 140.16 118.16 140.16 117.798V113.86C140.16 113.498 139.864 113.204 139.5 113.204H131.585V105.985C131.585 105.623 131.29 105.329 130.926 105.329H125.649Z" fill="#F59A00"/>
<path d="M164.564 107.298C164.564 106.935 164.859 106.641 165.223 106.641H170.5C170.864 106.641 171.16 106.935 171.16 107.298V125.016C171.16 125.379 170.864 125.673 170.5 125.673H165.223C164.859 125.673 164.564 125.379 164.564 125.016V107.298Z" fill="#F59A00"/>
<path d="M174.457 105.329C174.093 105.329 173.798 105.623 173.798 105.985V123.704C173.798 124.066 174.093 124.36 174.457 124.36H179.644C179.854 124.403 180.08 124.343 180.243 124.181L187.483 116.978C187.741 116.721 187.741 116.306 187.483 116.049L184.685 113.265C184.428 113.009 184.01 113.009 183.752 113.265L180.394 116.607V105.985C180.394 105.623 180.098 105.329 179.734 105.329H174.457Z" fill="#F59A00"/>
<path d="M144.447 113.86C144.447 113.498 144.742 113.204 145.106 113.204H159.617C159.981 113.204 160.277 113.498 160.277 113.86V117.798C160.277 118.16 159.981 118.454 159.617 118.454H145.106C144.742 118.454 144.447 118.16 144.447 117.798V113.86Z" fill="#F59A00"/>
<path d="M82.117 106.641C81.7528 106.641 81.4575 106.935 81.4575 107.298V111.235C81.4575 111.597 81.7528 111.891 82.117 111.891H88.7128C89.077 111.891 89.3723 111.597 89.3723 111.235V107.298C89.3723 106.935 89.077 106.641 88.7128 106.641H82.117Z" fill="#F59A00"/>
<path d="M25.86 121.755C25.6024 121.499 25.6024 121.083 25.86 120.827L33.4589 113.266C33.7165 113.01 34.1341 113.01 34.3917 113.266L37.19 116.05C37.4476 116.307 37.4476 116.722 37.19 116.979L29.5911 124.539C29.3335 124.795 28.9159 124.795 28.6584 124.539L25.86 121.755Z" fill="#F59A00"/>
<path d="M103.883 105.985C103.519 105.985 103.223 106.279 103.223 106.641V110.579C103.223 110.941 103.519 111.235 103.883 111.235H112.195L102.537 120.845C102.279 121.101 102.279 121.517 102.537 121.773L105.335 124.557C105.593 124.813 106.01 124.813 106.268 124.557L111.468 119.383L116.668 124.557C116.926 124.813 117.343 124.813 117.601 124.557L120.399 121.773C120.657 121.516 120.657 121.101 120.399 120.845L115.199 115.671L119.85 111.044C119.985 110.909 120.049 110.732 120.043 110.556V106.641C120.043 106.279 119.747 105.985 119.383 105.985H103.883Z" fill="#F59A00"/>
<path d="M13.1915 105.985C13.1915 105.622 13.4868 105.328 13.8511 105.328H15.1702C15.5345 105.328 15.8298 105.622 15.8298 105.985V108.61C15.8298 108.972 15.5345 109.266 15.1702 109.266H13.8511C13.4868 109.266 13.1915 108.972 13.1915 108.61V105.985Z" fill="#F59A00"/>
<path d="M17.8085 105.328C17.4442 105.328 17.1489 105.622 17.1489 105.985V108.61C17.1489 108.972 17.4442 109.266 17.8085 109.266H19.1277C19.4919 109.266 19.7872 108.972 19.7872 108.61V105.985C19.7872 105.622 19.4919 105.328 19.1277 105.328H17.8085Z" fill="#F59A00"/>
<path d="M21.4362 113.86C21.4362 113.498 21.7315 113.204 22.0958 113.204H23.7447C24.109 113.204 24.4043 113.498 24.4043 113.86V116.485C24.4043 116.847 24.109 117.141 23.7447 117.141H22.0958C21.7315 117.141 21.4362 116.847 21.4362 116.485V113.86Z" fill="#F59A00"/>
<path d="M26.383 113.204C26.0187 113.204 25.7234 113.498 25.7234 113.86V116.485C25.7234 116.847 26.0187 117.141 26.383 117.141H28.0319C28.3962 117.141 28.6915 116.847 28.6915 116.485V113.86C28.6915 113.498 28.3962 113.204 28.0319 113.204H26.383Z" fill="#F59A00"/>
</g>
<g clip-path="url(#clip1_1_14)">
<path fill-rule="evenodd" clip-rule="evenodd" d="M89.9807 82.8261C91.4662 83.5651 93.2147 83.5651 94.7002 82.8261L132.366 64.0883C133.706 63.4213 134.553 62.0579 134.553 60.5665V23.4335C134.553 21.9421 133.706 20.5787 132.366 19.9117L119.973 13.7466C119.602 13.5619 119.164 13.5619 118.793 13.7466L77.8994 34.0904C77.4525 34.3127 77.1702 34.7672 77.1702 35.2643V42.5788C77.1702 43.0667 76.6542 43.3839 76.2157 43.1658L64.708 37.4409C64.2611 37.2186 63.9788 36.7641 63.9788 36.267V28.7018C63.9788 28.2047 64.2611 27.7502 64.708 27.5279L105.012 7.4776C105.498 7.23576 105.498 6.54551 105.012 6.30367L94.7002 1.17395C93.2147 0.434937 91.4662 0.434938 89.9807 1.17395L52.3153 19.9117C50.9746 20.5787 50.1277 21.9421 50.1277 23.4335V60.5665C50.1277 62.0579 50.9746 63.4213 52.3153 64.0883L89.9807 82.8261ZM63.9788 46.6712C63.9788 46.1834 64.4947 45.8661 64.9333 46.0843L76.441 51.8091C76.8879 52.0314 77.1702 52.4859 77.1702 52.9831V60.2976C77.1702 60.7854 76.6542 61.1027 76.2157 60.8845L64.708 55.1597C64.2611 54.9373 63.9788 54.4829 63.9788 53.9857V46.6712Z" fill="#F59A00"/>
</g>
<defs>
<clipPath id="clip0_1_14">
<rect width="186" height="21" fill="white" transform="translate(2.63831 105)"/>
</clipPath>
<clipPath id="clip1_1_14">
<rect width="84.4255" height="84" fill="white" transform="translate(50.1277)"/>
</clipPath>
</defs>
</svg>
